<svg width="50" height="50" viewBox="0 0 50 50" fill="none" xmlns="http://www.w3.org/2000/svg">
<path d="M23.0847 8.3089L22.5104 8.37714L22.6286 10.1856C22.6793 11.1752 22.73 12.3354 22.73 12.7449V13.4785H23.5409C23.9801 13.4785 24.7403 13.4273 25.2302 13.3761C26.0073 13.2738 26.1086 13.2226 26.1086 12.8643C26.1086 12.4889 26.041 12.4719 24.9768 12.4207C23.8787 12.3695 23.828 12.3524 23.7774 11.9259C23.7267 11.5506 23.8112 11.4653 24.2673 11.3629C24.5544 11.3117 25.0612 11.2605 25.3822 11.2605C25.9228 11.2605 25.9566 11.2264 25.9059 10.7828C25.8552 10.3392 25.8214 10.3221 24.8416 10.3221H23.828V9.8103V9.29846L24.9768 9.24727C26.1086 9.19609 26.1086 9.19609 26.1086 8.70131V8.18947L24.8923 8.22359C24.2166 8.22359 23.4057 8.27478 23.0847 8.3089Z" fill="white"/>
<path d="M28.9973 11.107C28.6088 12.4378 28.3385 13.5809 28.423 13.6662C28.5074 13.7515 28.7439 13.8368 28.9805 13.8539C29.3521 13.905 29.4197 13.8027 29.6393 13.0008C29.8927 12.0453 29.9096 12.0283 30.5684 12.2842C30.9739 12.4378 31.0076 12.5231 31.0076 13.4614C31.0076 14.5534 31.0076 14.5704 31.7509 14.741L32.2408 14.8605L32.1226 13.7685C32.0212 12.6766 32.0212 12.6596 32.6125 12.0624C33.0517 11.6188 33.2038 11.3288 33.2038 10.8852C33.2038 10.0492 32.7138 9.62262 31.3286 9.21315C30.6698 9.00841 30.0278 8.80368 29.9265 8.76955C29.7913 8.71837 29.4704 9.55438 28.9973 11.107ZM31.43 10.3051C31.8354 10.4757 32.0212 10.6634 32.0212 10.9193C32.0212 11.397 31.6158 11.5164 30.8387 11.2776C30.1968 11.0899 30.1968 11.0728 30.3657 10.5781C30.5515 9.99797 30.636 9.98091 31.43 10.3051Z" fill="white"/>
<path d="M17.6789 9.23021C16.9694 9.55437 16.9525 9.57143 17.037 10.2027C17.2228 11.3117 17.3748 13.1373 17.2904 13.1373C17.2566 13.1373 16.8174 12.5231 16.3106 11.7724C15.8207 11.0046 15.3646 10.3563 15.297 10.3221C15.0774 10.1856 13.6077 10.7657 13.6077 10.9705C13.6077 11.1581 15.2632 15.5429 15.3646 15.6624C15.4659 15.7477 16.3106 15.3041 16.3106 15.1676C16.3106 15.0993 16.0403 14.3316 15.7193 13.4614C15.3814 12.6084 15.1449 11.8577 15.1956 11.8235C15.2294 11.7894 15.7362 12.4548 16.3275 13.2908C16.9018 14.1439 17.4593 14.8434 17.5607 14.8434C17.662 14.8263 17.8985 14.741 18.1012 14.6216C18.4391 14.4169 18.4391 14.3827 18.2195 12.7107C18.1012 11.7724 18.0168 10.8852 18.0506 10.7487C18.0844 10.6122 18.4053 11.2776 18.7601 12.2501C19.402 13.9221 19.4527 14.0074 19.8581 13.905C20.0946 13.8368 20.3311 13.7515 20.3987 13.6832C20.5339 13.5297 18.7939 8.99135 18.5743 8.94016C18.4898 8.9231 18.0844 9.04253 17.6789 9.23021Z" fill="white"/>
<path d="M9.04651 14.1951C8.04981 14.7069 7.52612 15.5088 7.52612 16.5495C7.52612 18.5457 9.89117 19.9618 11.5467 18.9381C13.4049 17.795 13.1009 15.1164 10.9892 14.1439C10.1108 13.7344 9.94185 13.7344 9.04651 14.1951ZM10.702 15.3552C11.4622 15.8159 11.8339 16.7372 11.5467 17.3685C11.4284 17.6074 11.1244 17.9315 10.871 18.0851C10.4486 18.3239 10.3642 18.3069 9.8067 18.0168C9.16476 17.6585 8.79311 17.1808 8.60729 16.4813C8.52282 16.1401 8.60729 15.9353 9.01272 15.5259C9.62088 14.9287 9.94185 14.8946 10.702 15.3552Z" fill="white"/>
<path d="M38.6095 15.9524L36.8357 17.7439L38.052 18.9723C39.2514 20.1836 39.2683 20.2007 39.6231 19.8765L39.9778 19.5524L39.167 18.7334L38.373 17.9145L38.7446 17.5391L39.1163 17.1638L39.8427 17.8803L40.5691 18.614L40.8901 18.2557C41.1941 17.9145 41.1941 17.8974 40.5015 17.1808L39.792 16.4472L40.1637 16.0718L40.5353 15.6965L41.3462 16.4984L42.1571 17.3003L42.5287 16.9249L42.9004 16.5496L41.7347 15.3553C41.0928 14.6899 40.5184 14.161 40.4677 14.161C40.4171 14.161 39.5893 14.9628 38.6095 15.9524Z" fill="white"/>
<path d="M42.799 20.7467C41.5996 21.3438 40.6367 21.941 40.6367 22.0604C40.6367 22.1798 40.7381 22.4187 40.8563 22.6063C41.0759 22.8964 41.1435 22.8793 42.4105 22.2822C43.1369 21.941 43.7451 21.685 43.7789 21.7021C43.7957 21.7362 43.4072 22.4357 42.9004 23.2717C42.022 24.6708 41.9713 24.8073 42.1571 25.2679C42.2754 25.5409 42.4274 25.7627 42.5119 25.7627C42.647 25.7627 46.3804 23.9542 46.8365 23.6642C47.0054 23.5618 47.0054 23.4253 46.8027 23.0329L46.5493 22.521L45.2317 23.1864C44.5222 23.5618 43.914 23.8348 43.8802 23.8006C43.8464 23.7665 44.2012 23.0841 44.6742 22.2992C45.1472 21.4974 45.5357 20.7637 45.5357 20.6784C45.5357 20.4054 45.1641 19.6206 45.0458 19.6377C44.9952 19.6547 43.9816 20.1495 42.799 20.7467Z" fill="white"/>
<path d="M3.89406 20.6955C3.20144 21.395 2.86357 22.4869 3.13386 23.2717C3.45483 24.2954 4.84007 25.2509 5.95502 25.2509C7.13754 25.2509 8.37075 23.9542 8.37075 22.6917C8.37075 22.0945 7.83016 20.9855 7.54298 20.9855C7.27269 20.9855 7.0024 22.0092 7.18822 22.3504C7.45852 22.8452 7.39094 23.1864 6.93483 23.63C6.44492 24.1419 5.87056 24.176 5.0259 23.7324C4.33328 23.3741 3.92784 22.7087 4.09677 22.231C4.26571 21.7362 4.68803 21.3267 5.009 21.3267C5.2624 21.3267 5.83677 20.559 5.83677 20.2177C5.83677 20.1666 5.53269 20.1324 5.14415 20.1324C4.58668 20.1324 4.35017 20.2348 3.89406 20.6955Z" fill="white"/>
<path d="M15.3983 24.2442C13.1177 26.4452 12.9826 26.7181 13.6076 27.52C14.3002 28.4072 18.5066 32.0754 18.8445 32.0754C19.0134 32.0754 19.554 31.7342 20.027 31.3077C20.5 30.8811 20.9393 30.5399 21.0068 30.5399C21.0744 30.5399 21.7839 31.2053 22.561 32.0072L23.9969 33.4574L22.0542 35.283C18.7938 38.337 16.6653 40.5038 16.6146 40.845C16.5808 41.0156 16.7329 41.2715 16.9694 41.4251C17.3748 41.6981 17.3917 41.681 21.0237 37.9104L24.6726 34.1057L25.1625 34.6176C25.4159 34.8906 25.5849 35.1977 25.5173 35.3171C25.4497 35.4195 26.666 36.7673 28.5243 38.6611C31.8016 41.971 32.1225 42.1928 32.7645 41.4763C32.9672 41.2374 33.0348 41.0156 32.9334 40.7426C32.7476 40.1113 26.7167 34.0887 26.3957 34.2252C26.2268 34.2763 25.9396 34.1569 25.6524 33.8839L25.1794 33.4403L26.0241 32.5531C29.048 29.3115 29.0142 29.3456 29.7406 29.3456C30.1122 29.3456 30.619 29.2091 30.8724 29.0385C31.3285 28.7485 34.5551 25.1826 34.5551 24.9779C34.5551 24.9096 33.7612 25.6433 32.7814 26.5987C30.8893 28.4413 30.4163 28.6631 29.9264 27.9466C29.7744 27.7418 29.6561 27.4518 29.6561 27.3153C29.6561 27.1959 30.3319 26.3769 31.1427 25.5238C33.9132 22.6234 33.4402 22.777 30.3825 25.7798C28.7101 27.4177 28.6425 27.503 28.6425 28.2195C28.6425 28.9191 28.575 29.0214 26.8688 30.7276C25.889 31.7001 24.9767 32.5531 24.8247 32.6384C24.6389 32.7408 24.2165 32.4337 23.186 31.4612C22.4259 30.7446 21.7839 30.0622 21.7501 29.9427C21.7163 29.8233 22.0373 29.3285 22.4596 28.8508C22.8989 28.356 23.2367 27.9124 23.2367 27.8271C23.2367 27.6736 21.3447 25.558 19.2837 23.4082C18.6418 22.7428 17.9661 22.1798 17.814 22.1798C17.662 22.1798 16.5639 23.1011 15.3983 24.2442ZM19.9763 25.5068C21.8346 27.4347 22.1894 27.9807 21.5812 27.9807C21.0913 27.9807 17.3917 24.0054 17.5944 23.6983C17.7971 23.357 18.1688 23.6471 19.9763 25.5068ZM18.8952 26.667C20.8379 28.5437 21.1758 29.0044 20.5845 29.0044C20.2466 29.0044 16.4795 25.285 16.4795 24.9608C16.4795 24.466 17.0032 24.8414 18.8952 26.667ZM17.8309 27.3153C19.7398 29.0726 20.0439 29.448 19.9088 29.8063C19.7061 30.3693 19.0641 29.9427 17.2228 28.0319C16.1585 26.9399 15.2969 25.9504 15.2969 25.8139C15.2969 25.2338 16.1078 25.7115 17.8309 27.3153ZM16.8173 28.4413C18.5235 30.1304 19.0303 30.8811 18.456 30.8811C18.1857 30.8811 14.4523 27.0935 14.4523 26.8205C14.4523 26.3087 15.0942 26.7523 16.8173 28.4413ZM17.4931 40.862C17.4931 40.9985 17.3748 41.118 17.2397 41.118C17.1045 41.118 16.9863 40.9985 16.9863 40.862C16.9863 40.7256 17.1045 40.6061 17.2397 40.6061C17.3748 40.6061 17.4931 40.7256 17.4931 40.862ZM32.4435 40.9474C32.4435 41.0838 32.3083 41.2203 32.1563 41.2545C31.9367 41.2886 31.8522 41.2033 31.8522 40.9474C31.8522 40.6914 31.9367 40.6061 32.1563 40.6402C32.3083 40.6744 32.4435 40.8109 32.4435 40.9474Z" fill="white"/>
<path d="M3.30267 35.9996C2.96481 36.2043 2.96481 36.9379 3.28577 37.1427C3.45471 37.245 3.725 37.2621 3.94461 37.1768C4.24868 37.0574 4.33315 36.9209 4.28247 36.5796C4.23179 36.0849 3.67432 35.7607 3.30267 35.9996Z" fill="white"/>
<path d="M45.5695 36.0166C45.2654 36.136 45.181 36.2725 45.2316 36.6308C45.2823 37.0403 45.3668 37.1085 45.7891 37.1085C46.2283 37.1085 46.2959 37.0403 46.3466 36.5796C46.3973 35.9654 46.1608 35.7948 45.5695 36.0166Z" fill="white"/>
</svg>
