<svg width="47" height="45" viewBox="0 0 47 45" fill="none" xmlns="http://www.w3.org/2000/svg">
<path d="M19.9354 8.15625C15.0837 10.2188 13.9308 16.5 17.7257 20.2031C20.8481 23.25 25.2675 23.25 28.39 20.2031C34.3466 14.3906 27.6694 4.875 19.9354 8.15625Z" fill="white"/>
<path d="M15.0356 26.0156C13.1141 26.8125 9.27117 30.2344 8.35846 31.9219C7.97417 32.6719 7.68594 34.1719 7.68594 35.3906V37.5H23.0578H38.4297V35.3906C38.4297 32.6719 37.6131 31.1719 34.827 28.6406C31.5604 25.6875 28.3419 24.6094 28.3419 26.4375C28.3419 26.7656 27.6694 27.6094 26.8528 28.4063C24.0666 30.9844 19.1188 29.9062 17.7257 26.3438C17.2453 25.125 17.1012 25.125 15.0356 26.0156Z" fill="white"/>
</svg>
